# xmcd
#
# Track frame offsets: 
#        150
#        24878
#        50393
#        82608
#        103516
#        124945
#        173239
#        209418
#        247199
#        275986
#        298608
#
# Disc length: 4535 seconds
#
# Revision: 0
# Processed by: cddbd v1.5.2PL0 Copyright (c) Steve Scherf et al.
# Submitted via: ExactAudioCopy v1.0b3
#
DISCID=9b11b50b
DTITLE=Foghat - Not Live At The BBC
DYEAR=2010
DGENRE=Blooze Rock
TTITLE0=Home In My Hand
TTITLE1=Fool For The City
TTITLE2=Drivin' Wheel
TTITLE3=My Babe
TTITLE4=Mumbo Jumbo
TTITLE5=Chateau Lafitte '59 Boogie
TTITLE6=California Blues
TTITLE7=I Just Want To Make Love To You
TTITLE8=Terraplane Blues
TTITLE9=Shake Your Money Maker
TTITLE10=Slow Ride
EXTD=
EXTT0=
EXTT1=
EXTT2=
EXTT3=
EXTT4=
EXTT5=
EXTT6=
EXTT7=
EXTT8=
EXTT9=
EXTT10=
PLAYORDER=
